<svg width="64" height="64" viewBox="0 0 64 64" fill="none" xmlns="http://www.w3.org/2000/svg">
<path fill-rule="evenodd" clip-rule="evenodd" d="M0.15802 27.7521V22.9746C0.26952 22.9121 0.24002 22.7971 0.26152 22.7011C1.76552 16.1581 5.86702 12.2251 12.334 10.6551C12.9005 10.5181 13.494 10.5316 14.045 10.3286H17.23C17.3025 10.4656 17.4375 10.4106 17.545 10.4226C20.756 10.7661 23.6465 11.9011 26.203 13.8796C28.385 15.5646 30.123 17.6531 31.672 19.9086C31.8635 20.1881 31.955 20.1961 32.1485 19.9106C33.035 18.6056 34.002 17.3621 35.0785 16.2056C37.7535 13.3366 40.9315 11.3581 44.834 10.6336C45.42 10.5236 46.0255 10.5301 46.594 10.3286H49.689C49.754 10.4436 49.869 10.4071 49.967 10.4186C50.8885 10.5221 51.799 10.6921 52.6935 10.9496C59.418 12.8816 64.16 19.0416 63.7615 26.0161C63.4275 31.8386 60.4805 36.0321 55.3715 38.7251C52.793 40.0846 49.9965 40.4696 47.1095 40.4126C43.297 40.3386 39.9825 39.0276 37.125 36.5261C35.1425 34.7916 33.584 32.7061 32.1525 30.5181C31.9395 30.1921 31.8575 30.2331 31.666 30.5281C30.76 31.9226 29.787 33.2741 28.686 34.5281C26.752 36.7311 24.5175 38.5281 21.721 39.5081C18.2635 40.7191 14.7385 40.7661 11.244 39.7781C6.20702 38.3536 2.73402 35.1501 0.86152 30.2401C0.55252 29.4316 0.42402 28.5726 0.15802 27.7521V27.7521ZM16.053 35.0941C18.92 35.2131 21.363 34.2501 23.4355 32.3226C25.5975 30.3106 27.127 27.8206 28.6795 25.3496C28.7735 25.2011 28.7445 25.0841 28.6545 24.9456C27.332 22.8851 25.9765 20.8441 24.1875 19.1446C20.746 15.8731 16.6915 14.7736 12.1675 16.2186C8.38902 17.4276 6.00002 20.1171 5.44202 24.1101C4.92052 27.8326 6.36952 30.8386 9.34802 33.0806C11.3305 34.5746 13.614 35.1626 16.053 35.0946V35.0941ZM47.7265 35.0941C48.8495 35.1231 49.955 35.0491 51.0215 34.7286C54.9315 33.5626 57.574 31.0821 58.3105 27.0136C59.045 22.9611 57.4765 19.7171 54.1155 17.4006C50.369 14.8166 44.908 15.0706 41.088 17.9121C38.551 19.7991 36.826 22.3671 35.1505 24.9786C35.0525 25.1286 35.078 25.2441 35.164 25.3811C36.508 27.5311 37.8535 29.6796 39.5955 31.5431C41.799 33.9006 44.4475 35.2401 47.7265 35.0941V35.0941ZM63.84 49.5976C63.6915 50.0686 63.5725 50.5491 63.3925 51.0076C62.2755 53.8476 58.2815 54.6096 56.365 52.3496C55.713 51.5801 55.426 50.6566 55.3165 49.6761C55.164 48.3046 55.168 46.9436 55.6835 45.6271C56.412 43.7796 57.9885 42.8206 60.0605 42.9771C61.949 43.1191 63.2055 44.2461 63.6545 46.1936C63.713 46.4436 63.6835 46.7171 63.8395 46.9436L63.84 49.5976ZM57.531 48.2926C57.533 49.0471 57.574 49.7971 57.842 50.5116C58.045 51.0646 58.385 51.4826 58.9885 51.6386C60.0665 51.9181 60.951 51.4746 61.2795 50.4026C61.701 49.0176 61.6815 47.6076 61.283 46.2206C61.0255 45.3166 60.4805 44.9201 59.625 44.9046C58.711 44.8866 58.145 45.2776 57.8165 46.1581C57.5605 46.8481 57.535 47.5706 57.5315 48.2931L57.531 48.2926ZM48.6545 46.7226V52.8616C48.6545 53.4666 48.6545 53.4666 48.0275 53.4666C47.7185 53.4666 47.408 53.4456 47.0995 53.4726C46.754 53.5041 46.6465 53.3826 46.6505 53.0316C46.666 51.2186 46.658 49.4066 46.658 47.5936C46.658 46.2386 46.668 44.8831 46.6525 43.5276C46.6485 43.2186 46.7365 43.1191 47.047 43.1311C47.6505 43.1546 48.256 43.1561 48.8595 43.1291C49.16 43.1171 49.301 43.2246 49.422 43.4886C50.365 45.5336 51.322 47.5706 52.277 49.6096C52.301 49.6581 52.334 49.7051 52.432 49.8671V49.3401C52.432 47.4101 52.4395 45.4801 52.424 43.5511C52.422 43.2266 52.496 43.1056 52.836 43.1311C53.2615 43.1621 53.6895 43.1486 54.117 43.1351C54.357 43.1251 54.453 43.1936 54.453 43.4531C54.4462 46.6804 54.4462 49.9078 54.453 53.1351C54.453 53.3791 54.381 53.4751 54.127 53.4706C53.4637 53.4566 52.8003 53.4573 52.137 53.4726C51.865 53.4806 51.795 53.3146 51.705 53.1211C50.769 51.0899 49.829 49.0606 48.885 47.0331C48.838 46.9336 48.832 46.8011 48.6545 46.7231V46.7226ZM15.9065 48.5726C16.664 49.1816 16.965 50.0256 17.3635 50.8086C17.7485 51.5686 18.1135 52.3401 18.5 53.0996C18.631 53.3596 18.6565 53.4866 18.287 53.4726C17.6693 53.4531 17.0512 53.4531 16.4335 53.4726C16.1835 53.4806 16.0725 53.3771 15.9765 53.1601C15.545 52.1776 15.094 51.2031 14.6525 50.2251C14.41 49.6876 14.0255 49.3596 13.422 49.2751C13.0645 49.2266 12.9705 49.3401 12.977 49.6936C12.998 50.8126 12.9725 51.9316 12.992 53.0511C12.998 53.3791 12.912 53.4941 12.576 53.4746C12.1055 53.4456 11.633 53.4571 11.162 53.4706C10.912 53.4766 10.789 53.4201 10.789 53.1331C10.799 49.9061 10.795 46.6816 10.797 43.4551C10.797 43.3146 10.76 43.1331 10.992 43.1406C12.5645 43.1916 14.1485 42.9746 15.705 43.3241C17.8435 43.8046 18.1135 45.6116 17.7285 46.9476C17.4765 47.8241 16.7985 48.3026 15.906 48.5726H15.9065ZM12.9865 46.2171V47.3206C12.9865 47.4416 12.9825 47.5666 13.1565 47.5666C13.758 47.5726 14.367 47.6151 14.926 47.3186C15.4315 47.0486 15.641 46.6056 15.566 45.9866C15.506 45.4806 15.2265 45.1661 14.664 45.0391C14.3479 44.9679 14.0251 44.9305 13.701 44.9276C12.816 44.9176 13.008 44.8456 12.986 45.5996C12.9805 45.8046 12.986 46.0116 12.986 46.2171H12.9865ZM19.494 48.2911C19.494 46.7286 19.504 45.1681 19.4865 43.6056C19.4825 43.2541 19.5545 43.1136 19.9415 43.1306C21.1915 43.1816 22.4475 43.0526 23.6935 43.2056C26.0605 43.4961 27.281 44.7326 27.547 47.1306C27.6775 48.2951 27.635 49.4571 27.217 50.5761C26.5585 52.3321 25.1835 53.1411 23.416 53.3851C22.217 53.5491 21.004 53.4436 19.795 53.4706C19.4705 53.4786 19.494 53.2776 19.494 53.0646V48.2911V48.2911ZM21.668 48.2831V50.6661C21.668 51.6861 21.668 51.6861 22.707 51.6426C23.996 51.5876 24.8185 50.9261 25.123 49.6661C25.367 48.6621 25.342 47.6506 25.092 46.6526C24.842 45.6601 24.1855 45.1056 23.16 44.9901C22.797 44.9491 22.426 44.9631 22.0605 44.9301C21.75 44.9001 21.656 45.0201 21.662 45.3281C21.6795 46.3126 21.668 47.2991 21.668 48.2831V48.2831ZM8.74802 53.4706C7.56452 53.4706 7.56452 53.4706 7.24602 52.3516C6.99202 51.4611 6.99202 51.4611 6.06452 51.4611C5.32602 51.4611 4.58952 51.4746 3.85352 51.4551C3.58002 51.4476 3.46502 51.5391 3.40052 51.8011C3.28902 52.2581 3.11902 52.7011 3.00802 53.1581C2.94552 53.4121 2.81652 53.4826 2.57252 53.4746C2.08685 53.457 1.60069 53.457 1.11502 53.4746C0.78502 53.4886 0.75402 53.3831 0.84402 53.0896C1.58002 50.7146 2.30252 48.3361 3.02902 45.9571C3.27902 45.1426 3.54102 44.3301 3.77552 43.5101C3.84952 43.2461 3.95102 43.1231 4.25002 43.1331C5.00202 43.1561 5.75402 43.1481 6.50402 43.1366C6.73402 43.1331 6.83602 43.2071 6.90402 43.4336C7.88585 46.6563 8.87419 49.8769 9.86902 53.0956C9.95702 53.3806 9.91402 53.5021 9.58802 53.4746C9.31052 53.4511 9.02952 53.4706 8.74802 53.4706V53.4706ZM5.31452 45.6406L5.22252 45.6466C4.83402 46.9826 4.44352 48.3166 4.05452 49.6526C4.12302 49.6721 4.15052 49.6876 4.17952 49.6876C4.65052 49.6916 5.12102 49.6956 5.59202 49.6956C6.49402 49.6976 6.49602 49.6956 6.24802 48.8456C5.93752 47.7776 5.62502 46.7071 5.31452 45.6406ZM28.537 46.9826C28.537 45.8186 28.543 44.6546 28.5315 43.4886C28.5295 43.2306 28.5915 43.1191 28.873 43.1331C29.3595 43.1546 29.848 43.1581 30.332 43.1311C30.658 43.1136 30.7205 43.2461 30.7185 43.5391C30.709 45.5001 30.713 47.4611 30.717 49.4221C30.717 49.7601 30.727 50.0996 30.762 50.4356C30.8555 51.3596 31.402 51.8261 32.406 51.8556C33.412 51.8866 33.9805 51.4511 34.117 50.5196C34.1649 50.1846 34.1885 49.8465 34.1875 49.5081C34.1955 47.5471 34.199 45.5861 34.1815 43.6271C34.1795 43.2581 34.244 43.0921 34.658 43.1291C35.1115 43.1701 35.5725 43.1486 36.0275 43.1351C36.2675 43.1271 36.369 43.1916 36.3675 43.4511C36.3515 45.6911 36.3905 47.9336 36.326 50.1721C36.2715 52.1171 35.004 53.3771 33.0545 53.5941C32.2225 53.6876 31.4045 53.6406 30.6095 53.3771C29.334 52.9511 28.6055 51.9261 28.5565 50.4296C28.5215 49.2816 28.551 48.1311 28.551 46.9826H28.537ZM41.4845 43.1386C42.502 43.1386 43.5175 43.1486 44.535 43.1311C44.8225 43.1271 44.9275 43.2111 44.908 43.5041C44.8865 43.8566 44.8865 44.2101 44.908 44.5626C44.926 44.8441 44.8125 44.9161 44.551 44.9081C44.0195 44.8906 43.49 44.9121 42.959 44.8981C42.711 44.8906 42.592 44.9396 42.592 45.2306C42.6035 47.2636 42.602 49.2971 42.594 51.3306C42.592 51.6016 42.6775 51.6936 42.9475 51.6836C43.4765 51.6701 44.0075 51.6956 44.5375 51.6736C44.8375 51.6641 44.922 51.7796 44.908 52.0606C44.8885 52.4276 44.893 52.7971 44.906 53.1641C44.916 53.4006 44.8185 53.4691 44.596 53.4691C42.533 53.4631 40.471 53.4631 38.406 53.4691C38.16 53.4706 38.061 53.3926 38.0705 53.1406C38.0845 52.7724 38.0838 52.4038 38.0685 52.0356C38.0565 51.7696 38.1445 51.6681 38.42 51.6756C38.965 51.6916 39.51 51.6721 40.055 51.6816C40.305 51.6876 40.385 51.5941 40.383 51.3456C40.377 49.2991 40.377 47.2501 40.383 45.2011C40.383 44.9711 40.301 44.8946 40.074 44.8986C39.529 44.9101 38.9825 44.8866 38.439 44.9086C38.1405 44.9201 38.045 44.8106 38.0705 44.5276C38.1135 44.0781 37.883 43.5061 38.17 43.2111C38.42 42.9551 38.9825 43.1466 39.408 43.1386C40.098 43.1311 40.793 43.1386 41.4845 43.1386V43.1386ZM62.426 12.2386C62.3595 12.3381 62.336 12.3711 62.3145 12.4046C62.1935 12.5861 62.287 12.9531 61.9825 12.9476C61.7125 12.9416 61.781 12.6056 61.6855 12.4221C61.6605 12.3731 61.6305 12.3281 61.547 12.1916C61.547 12.4436 61.551 12.5861 61.547 12.7306C61.543 12.8281 61.5645 12.9511 61.41 12.9591C61.254 12.9671 61.2635 12.8421 61.2615 12.7441C61.258 12.4041 61.258 12.0666 61.26 11.7286C61.26 11.6136 61.242 11.4806 61.422 11.4766C61.557 11.4746 61.674 11.4691 61.7305 11.6446C61.8025 11.8596 61.828 12.0996 61.994 12.3066C62.1525 12.1056 62.1795 11.8731 62.24 11.6601C62.291 11.4866 62.3985 11.4751 62.539 11.4751C62.717 11.4766 62.709 11.6016 62.711 11.7191C62.713 12.0591 62.713 12.3966 62.709 12.7366C62.707 12.8321 62.7205 12.9591 62.5685 12.9611C62.416 12.9611 62.4275 12.8401 62.426 12.7401C62.422 12.5956 62.426 12.4531 62.426 12.2386V12.2386ZM60.57 11.4726C60.6135 11.4726 60.66 11.4651 60.701 11.4726C60.8635 11.5041 61.115 11.3791 61.168 11.5726C61.24 11.8441 60.955 11.7076 60.834 11.7656C60.713 11.8241 60.7365 11.9316 60.734 12.0296C60.7285 12.2636 60.7305 12.4981 60.7305 12.7326C60.7305 12.8616 60.7055 12.9691 60.539 12.9626C60.3865 12.9576 60.3925 12.8456 60.3925 12.7441C60.3879 12.5248 60.3873 12.3054 60.3905 12.0861C60.3965 11.8986 60.3985 11.7226 60.129 11.7481C60.035 11.7561 59.953 11.7286 59.953 11.6096C59.953 11.4456 60.08 11.4786 60.174 11.4746C60.3065 11.4686 60.4375 11.4726 60.5705 11.4726H60.57Z" fill="#00979C"/>
<path fill-rule="evenodd" clip-rule="evenodd" d="M15.9886 23.7715C17.6076 23.7715 19.2286 23.783 20.8476 23.7615C21.2266 23.756 21.3241 23.873 21.3011 24.2325C21.2688 24.6876 21.2688 25.1444 21.3011 25.5995C21.3281 25.9785 21.2266 26.1015 20.8241 26.0975C18.6741 26.076 16.5236 26.086 14.3751 26.086C13.2851 26.086 12.1951 26.0705 11.1076 26.096C10.7266 26.1055 10.6291 25.9785 10.6506 25.621C10.6796 25.1525 10.6756 24.6775 10.6506 24.207C10.6331 23.869 10.7306 23.758 11.0856 23.762C12.7191 23.783 14.3556 23.7715 15.9886 23.7715V23.7715ZM47.5081 20.5645C47.8906 20.5645 48.2756 20.576 48.6581 20.5605C48.9081 20.5505 48.9881 20.6385 48.9846 20.8905C48.9706 21.5975 48.9946 22.3045 48.9726 23.0115C48.9611 23.332 49.0391 23.449 49.3826 23.4355C50.0741 23.408 50.7676 23.4375 51.4591 23.424C51.7266 23.418 51.8651 23.4705 51.8576 23.7815C51.8413 24.5476 51.8406 25.3139 51.8556 26.08C51.8616 26.3575 51.7556 26.43 51.4921 26.426C50.7851 26.41 50.0781 26.4335 49.3711 26.414C49.0706 26.404 48.9611 26.4805 48.9711 26.801C48.9941 27.508 48.9671 28.215 48.9846 28.922C48.9921 29.2185 48.9196 29.34 48.5976 29.33C47.8465 29.3108 47.0951 29.3101 46.3441 29.328C46.0526 29.336 45.9631 29.242 45.9706 28.951C45.9906 28.215 45.9671 27.4785 45.9826 26.742C45.9866 26.492 45.9101 26.41 45.6581 26.416C44.9511 26.4295 44.2421 26.4005 43.5371 26.4295C43.1741 26.4435 43.0901 26.3125 43.0976 25.9765C43.1191 25.285 43.1311 24.5915 43.0956 23.9005C43.0741 23.492 43.2266 23.4045 43.6016 23.42C44.2796 23.449 44.9571 23.416 45.6351 23.4335C45.9046 23.4415 45.9901 23.3595 45.9826 23.084C45.9651 22.379 45.9901 21.67 45.9706 20.963C45.9631 20.664 46.0371 20.537 46.3576 20.5585C46.7401 20.584 47.1231 20.5645 47.5076 20.5645H47.5081Z" fill="#00979C"/>
</svg>
