<svg width="65" height="64" viewBox="0 0 65 64" fill="none" xmlns="http://www.w3.org/2000/svg">
<path d="M9.88347 41.3427C8.86197 40.5397 7.77147 39.7697 7.02697 38.6842C5.45947 36.7702 4.25297 34.5552 3.42797 32.2272C2.92897 30.7132 2.75847 29.0897 2.11547 27.6347C1.44347 26.5777 2.23097 25.4222 3.38897 25.0862C3.90397 24.9872 4.81047 24.5007 3.71647 24.8482C2.73547 25.5682 2.64097 24.1952 3.64697 24.1077C4.33297 24.0172 4.58597 23.4552 4.35097 22.9497C3.61397 22.4687 6.13797 21.9412 4.86797 21.2237C3.54547 19.7962 6.71797 19.5217 5.93547 21.1427C5.74797 22.3887 8.15297 20.9137 7.59447 22.3532C8.16197 23.0447 9.71847 22.5107 9.67947 23.4802C10.5055 23.5372 10.7895 24.2317 11.5645 24.2852C12.3685 24.6487 13.825 24.9342 14.0985 25.8402C13.3015 26.4707 11.4555 24.5362 11.3665 26.2832C11.6075 28.8647 11.5455 31.5232 12.4905 33.9812C12.937 35.4702 14.02 36.6412 14.998 37.8012C15.934 38.9367 17.2015 39.7357 18.4935 40.4082C19.6265 40.9427 20.848 41.2967 22.0835 41.5197C22.584 41.1367 23.469 39.7127 24.25 40.3132C24.2875 40.9882 22.6995 41.7242 24.1755 41.6502C25.0425 41.3877 25.6435 42.3202 26.3575 41.4787C27.015 42.2577 29.091 40.9817 28.623 42.5737C27.9895 42.9817 27.067 42.7342 26.4335 43.2972C25.3885 42.7747 24.557 43.7637 23.3995 43.6397C22.115 43.8687 20.8075 43.9622 19.505 43.9637C17.368 43.7952 15.186 43.7237 13.1535 42.9802C12.007 42.6472 10.89 41.9942 9.88347 41.3427ZM11.6875 42.1252C12.8055 42.6082 13.899 43.1177 15.1245 43.2717C17.069 43.5417 19.077 43.9582 21.0285 43.5792C20.145 43.1802 19.232 43.7332 18.352 43.2937C17.297 43.5212 16.1645 43.2362 15.0915 43.0957C13.872 42.5527 12.5555 42.1787 11.413 41.4732C9.98547 40.9517 12.151 42.1422 12.537 42.2387C13.429 42.7452 11.556 41.9787 11.2915 41.7687C10.544 41.3492 10.4485 41.4367 11.2175 41.8627C11.3725 41.9522 11.5255 42.0482 11.6875 42.1252ZM9.55947 40.6212C10.6435 41.0232 9.55497 39.8592 9.05897 39.9267C8.83897 39.5447 8.21797 39.3037 8.65597 39.0992C7.86897 39.3727 7.83097 38.0597 7.46147 38.2472C6.62797 37.9842 7.13747 37.0522 6.14447 36.4802C6.05397 35.8772 5.15897 35.3547 4.87347 34.4452C4.74747 33.9792 3.86147 32.6427 4.40547 33.8862C4.86847 35.0842 5.68297 36.1107 6.36197 37.1352C6.88797 38.1102 7.50997 39.1307 8.46847 39.7392C8.79147 40.0492 9.10347 40.5242 9.55947 40.6212ZM6.43847 37.1937C6.47547 37.0302 6.63647 37.5477 6.43847 37.1937V37.1937ZM10.858 41.1027C11.0975 40.9942 10.5125 40.9667 10.858 41.1027V41.1027ZM11.446 41.3167C11.3855 41.0202 11.177 41.4827 11.446 41.3167V41.3167ZM12.1825 41.6232C12.5325 41.2897 11.642 41.4127 12.1825 41.6232V41.6232ZM13.4445 42.3267C13.6575 42.0127 12.7625 42.2087 13.4445 42.3267V42.3267ZM11.021 40.6377C11.565 40.2852 10.3175 40.6332 11.021 40.6377V40.6377ZM11.573 40.9132C11.5575 40.7272 11.3765 40.9962 11.573 40.9132V40.9132ZM14.3335 42.6362C14.7775 42.9167 16.9255 43.2497 15.5805 42.7507C15.355 42.7987 13.0865 42.1097 14.3335 42.6362ZM9.95197 39.2227C9.90847 39.0367 9.26197 39.0167 9.95197 39.2227V39.2227ZM11.236 39.9722C11.571 39.7392 10.542 39.7922 11.236 39.9722V39.9722ZM12.3175 40.6352C12.7975 40.4537 11.539 40.4532 12.3175 40.6352V40.6352ZM9.42797 38.6532C9.94897 39.0532 11.529 38.7052 10.2255 38.4152C9.63247 38.0992 8.29647 37.8832 9.20747 38.6057L9.42797 38.6532ZM13.0495 40.8637C13.267 40.4942 12.1395 40.6527 13.0495 40.8637V40.8637ZM11.949 39.9892C13.222 40.3497 10.8785 39.1837 11.635 39.8567L11.8025 39.9322L11.949 39.9892ZM14.156 41.2642C15.3615 41.2762 13.0665 41.0982 14.156 41.2642V41.2642ZM8.96397 37.9557C8.91697 37.7312 8.66697 37.9742 8.96397 37.9557V37.9557ZM16.195 42.4087C16.227 42.0037 15.802 42.7107 16.195 42.4087V42.4087ZM11.0225 39.2162C10.949 39.0022 10.6455 39.2067 11.0225 39.2162V39.2162ZM9.07897 37.8152C9.77097 37.7727 8.13047 37.5107 9.07897 37.8152V37.8152ZM6.77597 36.3267C6.68947 35.9942 6.02297 35.7302 6.77597 36.3267V36.3267ZM12.821 40.1632C12.6945 40.0182 12.761 40.1947 12.821 40.1632V40.1632ZM16.583 42.4717C16.5715 42.2507 16.378 42.5552 16.583 42.4717V42.4717ZM12.488 39.8192C12.556 39.5337 11.8975 39.7322 12.488 39.8192V39.8192ZM9.68497 38.0427C10.2 37.9877 8.85947 37.6942 9.68497 38.0427V38.0427ZM14.4265 40.9882C15.229 40.6707 13.644 40.8337 14.4265 40.9882V40.9882ZM11.96 39.3147C12.885 39.4337 10.8595 38.6852 11.7565 39.2472L11.96 39.3147ZM15.175 41.2917C16.039 40.7757 15.754 42.5007 16.6405 41.4372C17.5145 40.7987 15.8855 42.2262 16.9625 41.5512C17.742 41.0302 18.893 41.7982 19.62 42.0487C20.1425 42.0232 20.651 42.5007 21.1875 42.2097C22.2195 41.9317 19.169 41.7977 19.9685 41.3052C19.0245 41.5797 18.3275 40.9777 17.8625 40.3727C16.803 40.1282 15.5795 39.5862 15.05 38.6487C14.834 38.2972 15.361 38.6992 14.8635 38.1237C14.2255 37.5557 13.907 36.9107 13.4785 36.2212C12.967 35.9487 12.9065 35.1452 12.855 36.1942C12.859 35.5322 12.237 35.0862 12.0845 35.2707C12.082 34.6327 12.751 34.9527 12.2825 34.4807C12.182 33.8192 11.85 33.1307 11.7505 32.3842C11.596 32.0237 11.729 31.2532 11.2215 32.0677C11.037 32.9287 11.1605 31.0102 11.448 31.6422C11.8245 30.9962 11.3125 31.0727 11.2915 31.1617C11.537 30.6172 11.447 29.8447 11.227 30.1392C11.3575 29.5617 11.4335 28.0137 11.0315 28.2887C11.2755 27.6847 11.4945 25.5247 10.435 26.3482C10.006 26.3547 9.26247 26.5032 8.91197 26.6782C10.0125 27.2852 8.80097 26.8977 8.35197 26.8007C8.29397 27.3632 7.84997 27.1207 7.29497 27.1257C8.18097 27.2347 6.86347 28.0322 6.35597 27.7222C5.69547 28.0372 6.92547 28.8257 6.36897 29.0692C6.43747 29.4357 5.35747 28.9362 5.44197 29.7842C4.80097 29.5137 5.35447 30.7902 5.67497 30.3582C6.76497 30.6537 6.44197 31.3257 6.46947 31.9642C6.29197 32.3367 5.59247 31.0892 6.31347 31.1472C5.74447 30.2227 5.68447 30.8132 5.21097 31.2427C5.10147 31.2732 6.41697 31.8537 5.59147 32.1402C6.31747 32.2527 6.33897 32.8877 6.48747 33.2902C6.92347 33.7452 6.83397 32.7882 7.35647 33.3352C7.02547 32.8472 5.60497 31.9622 6.74847 32.2462C6.74247 31.7562 6.54147 31.3607 6.89247 31.3702C7.23997 30.7422 6.52847 32.9202 7.31097 32.1217C7.52797 32.0267 7.58147 31.4927 7.97097 32.1722C8.53597 32.7287 8.17547 33.1317 7.37747 32.6207C7.51997 33.1062 8.44447 33.2782 8.27047 34.0352C8.45447 34.7017 8.71247 34.4562 8.93697 34.4177C9.11297 35.0647 9.21347 34.5892 9.22147 34.2817C10.0275 34.4542 9.83847 34.9307 10.0915 35.2642C10.6475 35.5142 9.29597 33.5642 10.25 34.6777C11.2535 35.5837 10.6265 35.9612 9.72597 35.8167C10.296 35.7702 10.4795 36.5872 11.193 36.5587C11.8435 36.8677 12.284 38.0557 11.1625 37.5612C10.774 37.2102 9.39747 36.7782 10.5225 37.4452C11.56 37.9257 12.3845 38.2127 13.3855 38.8167C14.1015 39.3272 14.411 39.9127 14.6825 40.0302C14.0805 40.3162 12.8685 39.7997 13.7685 39.6417C13.2065 39.5402 12.575 39.2552 13.1125 39.9552C13.5705 40.3372 14.733 40.2977 14.942 40.3402C14.765 40.7287 14.462 40.7602 14.9485 40.7902C14.407 41.0807 15.125 41.1262 15.175 41.2917ZM14.0635 38.1532C13.7325 37.8072 13.6465 37.1602 14.0045 37.7227C14.188 37.7967 14.592 38.7807 14.0635 38.1532ZM17.683 40.4517C17.8895 40.4382 17.6895 40.6087 17.683 40.4517V40.4517ZM13.5415 37.3042C13.5285 36.7817 13.661 37.7077 13.5415 37.3042V37.3042ZM13.182 36.8212C12.7655 36.0177 13.7065 37.0482 13.182 36.8212V36.8212ZM8.82197 33.8122C9.06647 33.7467 8.94247 34.2292 8.82197 33.8122V33.8122ZM12.292 35.6922C12.442 35.1287 12.4685 36.1647 12.292 35.6922V35.6922ZM9.84047 33.9877C9.66797 33.6772 10.202 34.2797 9.84047 33.9877V33.9877ZM11.944 34.6622C11.55 33.7792 12.224 34.1797 12.0315 34.8067L11.944 34.6622ZM8.31597 32.2427C8.13997 31.9532 7.84847 31.1037 7.94297 30.8437C8.02697 31.2667 8.84097 32.6622 8.34147 31.4217C7.78997 30.3822 9.00097 31.7582 9.12547 32.0187C9.18397 32.2767 8.78497 31.9482 9.05497 32.5532C8.56297 31.8647 8.76497 32.9337 8.31597 32.2427ZM7.19547 31.4697C7.24147 30.7962 7.45147 31.9312 7.19547 31.4697V31.4697ZM7.69947 31.6442C7.93997 31.1357 8.10697 32.3527 7.69947 31.6442V31.6442ZM6.48597 30.7052C6.06897 30.2897 5.76697 29.9082 6.50647 30.4482C6.79047 30.4587 5.87297 29.5777 6.57447 30.1677C7.31197 30.3027 6.93847 31.3772 6.48597 30.7052ZM7.12347 30.6887C7.36597 30.4482 7.25197 30.9252 7.12347 30.6887V30.6887ZM7.51597 30.8142C7.14797 30.1257 7.96197 31.1037 7.51597 30.8142V30.8142ZM6.73647 30.0697C5.52347 28.9892 8.26097 30.6337 6.93447 30.2697L6.73647 30.0697ZM10.2135 32.0892C9.68797 31.7747 10.0735 29.8732 10.2535 31.1732C10.7635 31.0082 10.225 31.8452 10.6055 31.8372C10.5455 32.3657 10.375 32.5547 10.2135 32.0892ZM11.4995 32.8502C11.551 32.2767 11.6075 33.2412 11.4995 32.8502V32.8502ZM11.276 32.6282C11.3335 32.3847 11.2815 32.9172 11.276 32.6282V32.6282ZM6.97397 29.7147C6.19397 28.6397 9.23947 30.8032 7.47347 29.9877C7.28897 29.9392 7.06647 29.9212 6.97397 29.7147ZM9.45097 31.0272C9.37697 30.1217 9.61497 31.1772 9.45097 31.0272V31.0272ZM11.3305 32.2337C11.476 31.7182 11.342 32.5747 11.3305 32.2337V32.2337ZM7.09397 29.3042C7.55747 29.2052 9.01347 30.1172 7.67647 29.5647C7.52797 29.4002 7.21047 29.4747 7.09397 29.3042ZM11.0725 31.2872C11.122 30.3607 11.3495 30.7347 11.0745 31.4197L11.0725 31.2872ZM7.43847 28.9817C7.62697 28.7047 6.93697 27.7302 7.53797 28.6327C7.79747 28.8387 8.28897 28.9777 7.85497 29.0642C8.53797 29.6672 7.68897 29.2272 7.43847 28.9817ZM10.8755 30.9982C11.006 29.9432 10.991 31.6157 10.8755 30.9982V30.9982ZM7.04347 28.0072C7.18847 27.9457 7.12047 28.1997 7.04347 28.0072V28.0072ZM7.94097 28.5407C8.17147 28.0562 8.36597 29.0807 7.94097 28.5407V28.5407ZM10.469 29.9477C10.4675 29.7612 10.5175 30.2182 10.469 29.9477V29.9477ZM10.323 29.6232C9.97247 28.7577 10.6495 30.0817 10.323 29.6232V29.6232ZM10.1075 29.0552C10.049 28.6982 10.308 29.5047 10.1075 29.0552V29.0552ZM10.459 28.4852C10.2175 28.0607 10.7625 26.6152 10.824 27.5122C10.5695 28.2102 10.751 28.6017 10.9275 27.6647C11.255 26.9267 10.8565 29.1197 10.459 28.4852ZM10.819 26.3347C10.924 26.2062 10.8425 26.4902 10.819 26.3347V26.3347ZM10.217 38.1972C10.074 38.0722 10.235 38.2757 10.217 38.1972V38.1972ZM11.457 38.8237C12.147 39.0007 12.1435 38.7162 11.52 38.6317C11.185 38.3197 10.1265 37.9887 11.074 38.5927C11.136 38.7522 11.334 38.7482 11.457 38.8237ZM9.00847 37.1972C9.38797 37.4812 10.4395 37.9997 9.54997 37.3052C9.84997 36.9572 8.97597 36.7712 9.26547 36.5377C8.52747 36.0867 8.68297 36.1272 9.20047 36.1412C8.31397 35.7442 9.32847 35.7747 9.28097 35.5707C8.93897 35.5032 7.58247 34.9677 8.38047 35.6147C7.56947 35.2017 8.18697 35.7687 7.94197 35.7087C7.11197 35.4832 8.68047 36.3407 7.81047 36.1277C8.28597 36.5042 9.09097 37.0942 8.01097 36.5262C7.86897 36.7312 8.78347 37.0412 9.00847 37.1972ZM10.305 37.9422C11.8815 38.4492 9.53147 37.3212 10.305 37.9422V37.9422ZM16.944 41.9647C16.9645 41.6517 16.729 42.2312 16.944 41.9647V41.9647ZM17.6265 42.2512C17.9905 41.8997 17.6415 42.8132 18.229 42.1652C18.2355 41.7012 18.2115 41.4267 17.554 41.9902C17.372 42.0917 17.2915 42.5177 17.6265 42.2512ZM6.79447 35.4482C6.68297 35.0102 6.01097 35.0112 6.79447 35.4482V35.4482ZM7.52247 35.9262C7.25197 35.4777 6.55747 35.5197 7.52247 35.9262V35.9262ZM11.6685 38.4262C12.0735 38.7862 13.5275 38.6902 12.16 38.4707C11.958 38.1712 10.8745 38.2422 11.6685 38.4262ZM17.3665 41.9457C17.9895 41.4227 16.763 42.1782 17.3665 41.9457V41.9457ZM18.6625 42.8357C18.6665 42.6677 18.394 42.9087 18.6625 42.8357V42.8357ZM18.6645 42.6007C19.354 41.8697 17.9965 42.6437 18.6645 42.6007V42.6007ZM5.00197 33.9482C4.41397 33.1097 4.63647 32.7327 4.06997 32.0477C3.96197 31.5237 3.09697 30.3352 3.62247 31.5942C4.10347 32.3307 4.24597 33.4707 5.00197 33.9482ZM18.448 42.3687C19.7175 41.5487 17.927 42.0107 18.448 42.3687V42.3687ZM19.4165 42.7477C20.0525 42.2017 19.0145 42.6342 19.4165 42.7477V42.7477ZM6.57897 34.5212C6.76047 34.2512 6.10897 34.4862 6.57897 34.5212V34.5212ZM19.2145 42.4887C19.83 42.0927 19.0725 42.1532 19.103 42.5247L19.2145 42.4887ZM10.864 37.2257C10.843 36.9577 10.539 37.2482 10.864 37.2257V37.2257ZM11.38 37.5222C11.2155 37.1907 11.128 37.5747 11.38 37.5222V37.5222ZM20.2015 42.7567C20.99 42.1877 19.724 42.6482 20.0365 42.8647L20.2015 42.7567ZM19.8995 42.6112C20.542 42.0727 19.222 42.8492 19.8995 42.6112V42.6112ZM21.4425 43.6382C21.874 43.3492 20.918 43.5447 21.4425 43.6382V43.6382ZM6.97397 34.3262C7.55147 34.4557 9.28347 35.7497 8.26197 34.4162C7.73847 34.2612 8.05247 32.9822 7.51847 33.2082C7.87697 33.8072 7.81297 34.0612 7.06097 33.6842C6.11597 33.2222 6.52947 33.9127 6.71497 34.1027C6.46297 34.1597 7.04797 34.3222 6.97397 34.3262ZM4.34147 32.2472C4.44497 31.8187 3.38847 29.8932 3.84247 31.2817C4.00597 31.5727 3.98947 32.1237 4.34147 32.2472ZM9.17397 35.2267C8.87547 34.9777 9.15947 35.1907 9.17397 35.2267V35.2267ZM9.90647 35.3972C9.90647 34.9442 9.09647 35.2127 9.90647 35.3972V35.3972ZM16.2575 39.4002C16.136 39.0912 15.779 39.3932 16.2575 39.4002V39.4002ZM16.5625 39.6227C16.517 39.4492 16.3865 39.6567 16.5625 39.6227V39.6227ZM19.0795 41.2087C19.3215 41.0307 18.7775 41.1857 19.0795 41.2087V41.2087ZM5.65597 32.5827C6.34847 32.3147 4.91347 32.3917 5.65597 32.5827V32.5827ZM15.698 38.9087C15.6905 38.4612 15.2565 39.0207 15.698 38.9087V38.9087ZM5.38247 31.9452C5.82697 31.7947 4.97047 31.8462 5.38247 31.9452V31.9452ZM6.67297 32.5702C6.66597 32.4232 6.53697 32.6267 6.67297 32.5702V32.5702ZM22.421 42.2267C22.993 42.1122 24.2965 42.5177 24.507 42.0752C23.812 42.0582 22.104 41.5857 22.0235 42.1877L22.1755 42.2117L22.421 42.2267ZM7.08347 32.6742C7.09397 32.2192 6.72947 32.6567 7.08347 32.6742V32.6742ZM3.68947 30.3192C3.53547 29.4537 3.10297 30.1877 3.68947 30.3192V30.3192ZM4.49847 30.5222C4.50897 30.2442 3.75797 30.2722 4.49847 30.5222V30.5222ZM4.96147 30.7497C4.82747 30.6417 4.85697 30.8862 4.96147 30.7497V30.7497ZM7.87197 32.6167C8.00947 32.4902 7.54747 32.5237 7.87197 32.6167V32.6167ZM4.65397 30.2372C4.57497 29.5837 3.71547 30.1397 4.65397 30.2372V30.2372ZM2.99297 29.1607C2.96997 28.8587 2.83197 29.2742 2.99297 29.1607V29.1607ZM3.24047 28.9742C3.20047 28.6157 3.02847 29.0192 3.24047 28.9742V28.9742ZM4.60397 29.7877C5.18097 29.5617 3.55397 29.3192 4.48597 29.7452L4.60397 29.7877ZM22.8585 41.0637C23.228 40.7252 22.39 40.9592 22.8585 41.0637V41.0637ZM25.064 42.2062C25.212 41.7702 24.691 42.2642 25.064 42.2062V42.2062ZM4.74397 29.0737C4.80447 28.6497 4.28597 29.1572 4.74397 29.0737V29.0737ZM2.80297 27.7732C2.69897 27.1757 2.71347 26.1272 3.70997 26.4812C2.37947 26.7457 4.63147 28.1357 4.34747 27.0377C4.90697 27.0657 5.44147 26.7072 5.14847 27.2502C6.25097 27.1292 7.01497 26.1727 8.08047 26.3067C8.90997 26.1967 9.81747 26.1132 10.711 25.7792C11.4465 25.7267 12.1545 24.9352 11.7515 24.4662C10.749 24.3812 9.69947 24.5072 8.59147 24.7272C7.36397 24.9822 6.24847 25.4667 5.00947 25.6752C3.80147 25.8377 5.25197 26.1227 4.90547 26.1857C4.27597 26.4047 5.65747 26.5517 4.82397 26.7822C4.30947 26.6842 3.77347 26.5077 3.99347 25.9652C2.83697 26.1157 1.81997 26.5952 2.73397 27.7722L2.80297 27.7732ZM5.59097 26.3537C5.86197 25.3547 7.04347 27.1757 6.03497 26.4862C5.91497 26.3957 5.71647 26.3222 5.59097 26.3537ZM5.64347 25.8687C6.03497 25.5777 5.85097 26.0327 5.64347 25.8687V25.8687ZM6.13997 25.8772C6.17597 25.4177 7.27847 26.1207 6.32197 26.0427L6.13997 25.8772ZM6.81997 25.6042C7.06847 25.3132 6.89197 25.8612 6.81997 25.6042V25.6042ZM6.99397 25.4877C7.40747 24.9907 9.33447 25.1697 7.92397 25.4387C7.54597 25.1542 7.25647 25.6067 6.99397 25.4877ZM9.50997 25.0997C9.44747 23.7422 10.76 25.5812 9.50997 25.0997V25.0997ZM10.224 25.0947C10.4845 24.4122 11.237 24.8207 10.345 24.9577C10.364 25.0312 10.3185 25.3117 10.224 25.0947ZM4.46247 28.7227C5.24197 28.2452 3.63497 28.3077 4.46247 28.7227V28.7227ZM5.03897 28.8822C5.31247 28.5917 4.44447 28.7647 5.03897 28.8822V28.8822ZM3.33997 27.6772C3.78547 27.3342 2.81247 27.5467 3.33997 27.6772V27.6772ZM26.3655 42.0817C26.379 41.6842 26.025 42.2602 26.3655 42.0817V42.0817ZM24.026 40.4852C24.093 40.0282 23.725 40.5247 24.026 40.4852V40.4852ZM27.009 42.2357C27.632 42.2387 28.8965 42.0422 27.541 42.0427C27.328 42.0752 26.302 42.0692 27.009 42.2357ZM5.54597 28.6022C6.05047 28.5682 6.33497 28.0462 5.44797 28.0757C4.07447 27.9347 6.65997 28.5467 5.27147 28.3717C5.08597 28.4947 5.53547 28.6362 5.54597 28.6022ZM5.98997 28.8267C5.93747 28.5037 5.83397 28.9987 5.98997 28.8267V28.8267ZM6.51697 27.4222C6.73547 27.1512 6.21397 27.3497 6.51697 27.4222V27.4222ZM4.83997 24.6197C5.73997 24.3142 6.97097 23.9697 7.39547 24.7702C6.96297 24.2502 7.22047 23.7377 7.62947 24.4987C8.20697 25.2682 8.49547 24.1487 8.12047 23.8902C8.54847 24.4217 9.03497 24.6737 8.40697 23.9237C9.08997 23.1027 7.03997 24.0317 6.57447 24.0222C6.34997 24.1222 4.25997 24.5547 4.83997 24.6197ZM5.36747 23.6097C5.87997 23.2222 7.14247 23.8402 6.33247 23.2242C6.25297 23.1547 4.55997 23.6917 5.36747 23.6097ZM7.23897 23.6872C7.83897 23.7022 6.97947 22.8797 7.69497 23.2522C7.57797 22.8687 6.86197 22.7972 6.51197 22.6432C6.31347 22.9947 6.91447 23.6917 7.23897 23.6872ZM5.69547 21.9887C5.90347 21.7067 5.33147 22.1317 5.69547 21.9887V21.9887ZM6.46047 22.1712C7.42847 22.0432 6.21347 21.7547 6.26497 22.1612L6.46047 22.1712ZM5.03247 21.0547C4.35047 20.1642 6.31447 21.2042 5.62147 20.2722C5.03847 19.8082 4.47897 20.7957 5.03247 21.0547ZM13.778 25.7652C14.0905 25.2112 12.488 25.0182 13.568 25.5692C13.6665 25.6017 13.6445 25.8027 13.778 25.7652Z" fill="#111111"/>
<path d="M28.5315 21.9431C28.42 22.3846 28.3505 23.1241 28.3245 24.1631C28.3245 24.3676 28.2325 24.4696 28.048 24.4696C27.864 24.4696 27.7355 24.3806 27.6635 24.2031C27.466 23.7226 27.2785 23.3881 27.101 23.1966C26.891 22.9731 26.611 22.8381 26.2625 22.7921C25.8875 22.7331 24.954 22.7031 23.4605 22.7031C23.119 22.7031 22.8945 22.7396 22.79 22.8116C22.724 22.8576 22.6915 22.9566 22.6915 23.1086V27.5776C22.6915 27.7296 22.7865 27.8011 22.977 27.7951C23.5625 27.7881 24.411 27.7481 25.522 27.6761C25.739 27.6501 25.8855 27.5786 25.961 27.4641C26.037 27.3496 26.111 27.0516 26.183 26.5711C26.229 26.3081 26.3835 26.2061 26.6465 26.2656C26.8705 26.3116 26.9665 26.4136 26.933 26.5711C26.7485 27.4661 26.689 28.6301 26.755 30.0641C26.762 30.2351 26.6535 30.3271 26.43 30.3401C26.2455 30.3601 26.1305 30.2611 26.0845 30.0441C25.914 29.2221 25.596 28.7836 25.133 28.7266C24.669 28.6716 23.9145 28.6436 22.869 28.6436C22.7505 28.6436 22.692 28.6851 22.692 28.7711V33.2121C22.692 33.5401 22.813 33.7641 23.0565 33.8826C23.248 33.9806 23.6585 34.0696 24.29 34.1486C24.613 34.1806 24.7535 34.3236 24.7145 34.5726C24.6745 34.7901 24.3855 34.8751 23.846 34.8291C22.287 34.7046 21.0015 34.7116 19.989 34.8496C19.706 34.8881 19.565 34.7741 19.565 34.5046C19.565 34.3336 19.706 34.2351 19.989 34.2086C20.6335 34.1356 20.9555 33.5701 20.9555 32.5111V24.0636C20.9555 23.6306 20.8785 23.2966 20.724 23.0636C20.569 22.8296 20.2815 22.6166 19.8605 22.4266C19.5975 22.3081 19.4995 22.1466 19.565 21.9426C19.5975 21.8176 19.6505 21.7486 19.7225 21.7356C19.788 21.7156 19.963 21.7291 20.245 21.7751C20.6595 21.8411 21.6365 21.8741 23.175 21.8741C24.991 21.8741 26.559 21.8341 27.8815 21.7556C28.322 21.7291 28.5425 21.7651 28.5425 21.8636C28.5419 21.8904 28.5382 21.9171 28.5315 21.9431ZM34.9445 34.4836C34.9445 34.7461 34.796 34.8621 34.5 34.8276C33.5935 34.7431 32.468 34.7551 31.1265 34.8671C30.8565 34.8941 30.691 34.8866 30.6275 34.8481C30.565 34.8086 30.534 34.7001 30.534 34.5216C30.534 34.3646 30.713 34.2316 31.0715 34.1231C31.4305 34.0146 31.6095 33.6901 31.6095 33.1511V24.2226C31.6095 23.6891 31.532 23.2981 31.378 23.0481C31.223 22.7981 30.952 22.6041 30.564 22.4666C30.36 22.3941 30.258 22.2921 30.258 22.1601C30.258 21.9631 30.406 21.8151 30.7015 21.7166C31.1495 21.5716 31.613 21.3491 32.0935 21.0456C32.488 20.8086 32.738 20.6916 32.843 20.6916C33.0865 20.6916 33.208 20.8586 33.208 21.1946C33.208 21.1681 33.1945 21.4971 33.1685 22.1806C33.1495 22.8316 33.1425 23.4726 33.1495 24.1046L33.188 32.9141C33.188 33.3161 33.287 33.6076 33.4845 33.7881C33.682 33.9691 34.0205 34.0891 34.5 34.1481C34.796 34.1796 34.9445 34.2921 34.9445 34.4836ZM43.9415 33.8216C43.9415 33.9606 43.69 34.1691 43.1875 34.4481C42.684 34.7281 42.281 34.8676 41.9785 34.8676C41.7215 34.8676 41.4955 34.7436 41.298 34.4926C41.1005 34.2431 40.9625 34.1181 40.883 34.1181C40.8245 34.1181 40.5125 34.2536 39.9465 34.5221C39.3815 34.7926 38.8115 34.9281 38.24 34.9281C37.701 34.9281 37.25 34.7696 36.888 34.4546C36.494 34.1061 36.296 33.6316 36.296 33.0331C36.296 31.8956 37.598 31.0801 40.203 30.5866C40.65 30.5011 40.877 30.3201 40.8825 30.0436L40.9035 29.4121C40.942 28.3336 40.4655 27.7946 39.4725 27.7946C39.19 27.7946 38.921 28.0466 38.668 28.5536C38.4155 29.0601 38.052 29.3331 37.5785 29.3731C37.0395 29.4251 36.769 29.1981 36.769 28.6921C36.769 28.3761 37.171 28.0081 37.973 27.5866C38.8145 27.1466 39.6245 26.9261 40.4 26.9261C41.735 26.9261 42.3965 27.5611 42.383 28.8306L42.343 32.8946C42.3375 33.3221 42.5185 33.5361 42.8865 33.5361C42.959 33.5361 43.097 33.5196 43.3005 33.4866C43.4182 33.4649 43.5368 33.4484 43.656 33.4371C43.8465 33.4371 43.9415 33.5661 43.9415 33.8216ZM40.904 31.5726C40.91 31.4081 40.872 31.2991 40.7895 31.2471C40.708 31.1946 40.578 31.1846 40.4005 31.2171C38.815 31.5001 38.023 32.0166 38.023 32.7656C38.023 33.5221 38.434 33.9006 39.256 33.9006C39.585 33.9006 39.924 33.8386 40.272 33.7141C40.68 33.5686 40.8835 33.3941 40.8835 33.1906L40.904 31.5726ZM51.302 32.6471C51.302 33.3451 51.0335 33.8991 50.498 34.3101C49.9625 34.7216 49.2305 34.9271 48.302 34.9271C47.685 34.9271 47.0655 34.8616 46.4475 34.7291C45.915 34.6106 45.6055 34.5026 45.5205 34.4041C45.4675 34.3111 45.4415 33.8616 45.4415 33.0526C45.4415 32.7031 45.5205 32.5226 45.6795 32.5096C45.836 32.4896 45.971 32.5751 46.0835 32.7656C46.5765 33.6276 47.3725 34.0591 48.4705 34.0591C49.3975 34.0591 49.861 33.7361 49.861 33.0916C49.861 32.8096 49.757 32.5721 49.5455 32.3816C49.315 32.1641 48.8685 31.9106 48.204 31.6216C47.2435 31.1941 46.602 30.8191 46.28 30.4966C45.9315 30.1546 45.7565 29.6946 45.7565 29.1151C45.7565 28.4051 46.0295 27.8526 46.576 27.4581C47.083 27.0771 47.7595 26.8861 48.6075 26.8861C49.1405 26.8861 49.6275 26.9286 50.068 27.0141C50.542 27.1001 50.7885 27.2051 50.8085 27.3301C50.8605 27.6981 50.9695 28.2311 51.133 28.9291C51.1535 29.0141 51.0605 29.0831 50.857 29.1356C50.6395 29.1816 50.4955 29.1451 50.4235 29.0276C49.903 28.1786 49.2465 27.7541 48.45 27.7541C47.549 27.7541 47.098 28.0436 47.098 28.6226C47.098 28.9456 47.2205 29.2011 47.463 29.3916C47.6805 29.5561 48.19 29.8126 48.9925 30.1616C49.8345 30.5231 50.4065 30.8491 50.709 31.1381C51.1055 31.5131 51.302 32.0166 51.302 32.6471ZM62.7465 34.4236C62.7465 34.6541 62.5915 34.7761 62.2825 34.7886C61.8215 34.7956 61.22 34.8276 60.477 34.8866C60.109 34.9596 59.8455 34.9141 59.6875 34.7496C58.6485 33.6311 57.767 32.4606 57.0435 31.2371C56.985 31.1321 56.9085 31.0796 56.817 31.0796C56.7045 31.0796 56.511 31.1786 56.2355 31.3756C55.9255 31.5461 55.771 31.7896 55.771 32.1046C55.771 32.3291 55.7775 32.6511 55.7905 33.0726C55.8035 33.4931 55.9085 33.7696 56.1065 33.9006C56.2445 33.9936 56.5635 34.0656 57.063 34.1181C57.372 34.1576 57.527 34.2731 57.527 34.4631C57.527 34.6151 57.502 34.7086 57.4535 34.7446C57.4045 34.7811 57.274 34.7891 57.0635 34.7691C56.406 34.7106 55.295 34.7436 53.7285 34.8676C53.3345 34.9001 53.1205 34.8516 53.0885 34.7196C53.0727 34.6548 53.0658 34.5882 53.068 34.5216C53.068 34.3186 53.2685 34.1636 53.67 34.0591C54.0325 33.9661 54.2125 33.5426 54.2125 32.7861V24.1631C54.2125 23.6241 54.1605 23.2491 54.0555 23.0391C53.911 22.7686 53.6075 22.5581 53.1475 22.4066C52.9305 22.3346 52.8225 22.2331 52.8225 22.1011C52.8225 21.9101 52.9775 21.7621 53.286 21.6576C53.7829 21.4913 54.2567 21.2625 54.696 20.9766C55.0585 20.7396 55.282 20.6211 55.3675 20.6211C55.637 20.6211 55.7725 20.7921 55.7725 21.1346C55.7725 21.0881 55.7695 21.4141 55.762 22.1106C55.7555 22.5911 55.752 23.2356 55.752 24.0451L55.772 30.2201C55.772 30.3921 55.8185 30.4771 55.9095 30.4771C56.0075 30.4771 56.1595 30.3921 56.3635 30.2201C57.0481 29.6781 57.719 29.119 58.3755 28.5431C58.534 28.3786 58.6125 28.2476 58.6125 28.1486C58.6125 27.9711 58.3465 27.8461 57.814 27.7736C57.584 27.7466 57.474 27.6186 57.4875 27.3881C57.508 27.1586 57.623 27.0596 57.8335 27.0926C58.307 27.1586 58.998 27.1946 59.905 27.2011C60.537 27.2071 61.165 27.2111 61.79 27.2111C61.9935 27.2181 62.0955 27.3391 62.0955 27.5761C62.0955 27.7996 61.9345 27.9211 61.6125 27.9411C61.1171 27.9572 60.6302 28.0746 60.182 28.2861C59.5565 28.5691 58.889 29.0656 58.1785 29.7756C58.1544 29.7919 58.1346 29.8139 58.1209 29.8396C58.1073 29.8653 58.1001 29.894 58.1 29.9231C58.1 30.0156 58.2115 30.2356 58.4355 30.5846C59.258 31.8346 60.034 32.7781 60.7635 33.4161C61.231 33.8171 61.668 34.0176 62.076 34.0176C62.378 34.0176 62.566 34.0391 62.638 34.0821C62.71 34.1261 62.7465 34.2396 62.7465 34.4236Z" fill="#111111"/>
</svg>
