<svg width="64" height="64" viewBox="0 0 64 64" fill="none" xmlns="http://www.w3.org/2000/svg">
<path d="M17.6935 35.8946L16.25 35.0636L32.326 7.34863L33.7675 8.17663L17.6935 35.8946Z" fill="#E434AA"/>
<path d="M15.92 32.8496H48.07V34.5096H15.92V32.8496Z" fill="#E434AA"/>
<path d="M32.6365 43.0248L16.5565 33.7828L17.3885 32.3453L33.4705 41.5878L32.6365 43.0248ZM46.6075 18.9353L30.525 9.69331L31.359 8.25781L47.4395 17.4998L46.6075 18.9353Z" fill="#E434AA"/>
<path d="M17.3925 18.93L16.5605 17.494L32.6425 8.25195L33.4745 9.68745L17.3925 18.93Z" fill="#E434AA"/>
<path d="M46.3105 35.8946L30.235 8.17663L31.678 7.34863L47.7545 35.0636L46.3105 35.8946ZM17.195 16.3946H18.8615V34.8786H17.195V16.3946Z" fill="#E434AA"/>
<path d="M45.1385 16.3945H46.8045V34.8785H45.1385V16.3945Z" fill="#E434AA"/>
<path d="M32.3535 42.3223L31.625 41.0683L45.6115 33.0293L46.34 34.2828L32.3535 42.3223Z" fill="#E434AA"/>
<path d="M49.0135 35.4178C48.051 37.0878 45.9025 37.6563 44.2265 36.6973C43.8282 36.4696 43.4789 36.1655 43.1986 35.8024C42.9183 35.4393 42.7125 35.0243 42.5931 34.5814C42.4737 34.1385 42.443 33.6764 42.5028 33.2216C42.5626 32.7668 42.7117 32.3283 42.9415 31.9313C43.9045 30.2613 46.0525 29.6933 47.7285 30.6523C49.416 31.6208 49.9885 33.7498 49.0135 35.4173M21.049 19.3418C20.086 21.0098 17.9375 21.5798 16.2615 20.6208C15.8633 20.3929 15.514 20.0885 15.2338 19.7253C14.9535 19.362 14.7478 18.947 14.6284 18.504C14.509 18.061 14.4783 17.5988 14.538 17.1439C14.5978 16.689 14.7468 16.2504 14.9765 15.8533C15.9395 14.1853 18.088 13.6148 19.7635 14.5738C21.4395 15.5448 22.0115 17.6718 21.0485 19.3418M14.9865 35.4178C14.0215 33.7498 14.594 31.6208 16.2715 30.6523C17.9475 29.6933 20.086 30.2613 21.0585 31.9313C22.0235 33.5993 21.451 35.7283 19.7735 36.6973C18.088 37.6563 15.949 37.0873 14.9865 35.4173M42.951 19.3418C41.9885 17.6718 42.561 15.5448 44.236 14.5738C45.912 13.6148 48.051 14.1853 49.0235 15.8533C49.9885 17.5233 49.416 19.6503 47.7385 20.6208C46.0625 21.5798 43.914 21.0098 42.951 19.3418ZM32 45.2008C30.0625 45.2008 28.496 43.6423 28.496 41.7128C28.496 39.7848 30.0625 38.2263 32 38.2263C33.9375 38.2263 35.504 39.7848 35.504 41.7128C35.504 43.6308 33.9375 45.2008 32 45.2008M32 13.0468C30.0625 13.0468 28.496 11.4883 28.496 9.55827C28.496 7.63077 30.0625 6.07227 32 6.07227C33.9375 6.07227 35.504 7.63077 35.504 9.55827C35.504 11.4883 33.9375 13.0468 32 13.0468M53.3125 60.7538C53.2712 60.7559 53.23 60.7495 53.1913 60.7351C53.1526 60.7207 53.1172 60.6984 53.0875 60.6698C53.0586 60.6401 53.0361 60.6048 53.0214 60.5661C53.0067 60.5274 53.0001 60.4861 53.002 60.4448V51.2128C53.002 51.1188 53.031 51.0428 53.088 50.9863C53.1177 50.9577 53.1529 50.9355 53.1915 50.921C53.2301 50.9066 53.2713 50.9002 53.3125 50.9023H53.5825C53.676 50.9023 53.752 50.9293 53.8085 50.9863C53.8371 51.0164 53.8593 51.052 53.8737 51.0909C53.8882 51.1298 53.8946 51.1713 53.8925 51.2128V59.9098H58.7715C58.875 59.9098 58.955 59.9373 59.0115 59.9938C59.0685 60.0508 59.0955 60.1308 59.0955 60.2323V60.4453C59.0975 60.4864 59.0912 60.5276 59.0767 60.5662C59.0623 60.6048 59.0401 60.6401 59.0115 60.6698C58.955 60.7263 58.875 60.7538 58.7715 60.7538H53.3125ZM50.047 61.6678C49.9965 61.6683 49.9464 61.6579 49.9003 61.6374C49.8541 61.6169 49.8129 61.5866 49.7795 61.5488C49.7159 61.483 49.6545 61.4151 49.5955 61.3453L48.9725 60.4863C48.408 60.7578 47.748 60.8943 46.994 60.8943C46.211 60.8943 45.547 60.7558 45 60.4803C44.453 60.2028 44.033 59.7753 43.742 59.1988C43.449 58.6208 43.289 57.8923 43.262 57.0098C43.252 56.5878 43.246 56.1933 43.246 55.8278C43.246 55.4628 43.252 55.0678 43.2615 54.6463C43.289 53.7733 43.459 53.0488 43.7695 52.4703C44.08 51.8943 44.5115 51.4648 45.0645 51.1833C45.615 50.9023 46.258 50.7613 46.9945 50.7613C47.7285 50.7613 48.371 50.9023 48.924 51.1833C49.4745 51.4648 49.908 51.8943 50.2245 52.4703C50.5395 53.0488 50.707 53.7733 50.7265 54.6463C50.7438 55.0399 50.753 55.4338 50.754 55.8278C50.754 56.1928 50.744 56.5878 50.7265 57.0098C50.6795 58.3513 50.334 59.3378 49.6935 59.9668L50.5995 61.2318C50.6109 61.2469 50.6201 61.2636 50.627 61.2813C50.637 61.3043 50.6405 61.3398 50.6405 61.3863C50.6409 61.4232 50.6336 61.4598 50.6192 61.4938C50.6047 61.5278 50.5834 61.5584 50.5565 61.5838C50.5311 61.6104 50.5005 61.6317 50.4666 61.6461C50.4328 61.6605 50.3963 61.6679 50.3595 61.6678H50.047ZM46.994 60.0508C47.8045 60.0508 48.4705 59.8063 48.994 59.3183C49.5175 58.8298 49.797 58.0368 49.836 56.9393C49.8535 56.5173 49.8635 56.1463 49.8635 55.8278C49.8635 55.5098 49.8535 55.1383 49.836 54.7168C49.816 53.9843 49.6815 53.3883 49.4315 52.9293C49.1815 52.4688 48.8475 52.1343 48.4275 51.9218C48.01 51.7108 47.531 51.6053 46.994 51.6053C46.465 51.6053 45.992 51.7103 45.5725 51.9218C45.1525 52.1348 44.8185 52.4688 44.5685 52.9293C44.3185 53.3883 44.1795 53.9843 44.1525 54.7168C44.1425 55.1383 44.1365 55.5098 44.1365 55.8278C44.1365 56.1463 44.1425 56.5178 44.1525 56.9393C44.1895 58.0368 44.4725 58.8298 45 59.3183C45.5275 59.8063 46.1915 60.0508 46.994 60.0508ZM35.4275 60.7538C35.3863 60.7558 35.3452 60.7494 35.3065 60.735C35.2679 60.7206 35.2327 60.6984 35.203 60.6698C35.174 60.6401 35.1515 60.6049 35.1367 60.5662C35.1219 60.5275 35.1152 60.4862 35.117 60.4448V51.0698C35.117 50.9763 35.1465 50.9023 35.203 50.8453C35.2327 50.8166 35.2681 50.7944 35.3068 50.7799C35.3455 50.7655 35.3867 50.7591 35.428 50.7613H35.668C35.7635 50.7613 35.838 50.7888 35.8945 50.8453C35.9234 50.8749 35.946 50.9102 35.9608 50.9489C35.9756 50.9876 35.9823 51.0289 35.9805 51.0703V54.4058C36.2322 54.0794 36.5471 53.8071 36.9065 53.6053C37.2695 53.3983 37.7515 53.2948 38.3555 53.2948C38.996 53.2948 39.5315 53.4333 39.959 53.7108C40.389 53.9858 40.709 54.3608 40.922 54.8358C41.133 55.3108 41.24 55.8473 41.24 56.4473V60.4453C41.2418 60.4865 41.2351 60.5278 41.2204 60.5664C41.2057 60.605 41.1833 60.6402 41.1545 60.6698C41.1244 60.6986 41.0888 60.7209 41.0497 60.7354C41.0107 60.7498 40.9691 60.7561 40.9275 60.7538H40.6875C40.646 60.7558 40.6045 60.7495 40.5656 60.735C40.5267 60.7206 40.4911 60.6984 40.461 60.6698C40.4323 60.64 40.4101 60.6047 40.3957 60.566C40.3812 60.5273 40.3748 60.486 40.377 60.4448V56.5173C40.377 55.7673 40.1935 55.1773 39.826 54.7518C39.457 54.3238 38.92 54.1113 38.213 54.1113C37.545 54.1113 37.006 54.3238 36.5955 54.7513C36.1855 55.1773 35.9805 55.7673 35.9805 56.5173V60.4453C35.9822 60.4866 35.9755 60.5278 35.9607 60.5664C35.9459 60.605 35.9234 60.6402 35.8945 60.6698C35.8645 60.6985 35.8289 60.7208 35.7899 60.7353C35.751 60.7497 35.7095 60.756 35.668 60.7538H35.4275ZM27.215 63.4273C27.1735 63.4295 27.132 63.4232 27.093 63.4088C27.0541 63.3943 27.0185 63.372 26.9885 63.3433C26.9596 63.3137 26.9371 63.2785 26.9223 63.2399C26.9075 63.2013 26.9007 63.1601 26.9025 63.1188V53.7458C26.9025 53.6523 26.9315 53.5758 26.9885 53.5193C27.0185 53.4905 27.0541 53.4682 27.093 53.4538C27.132 53.4393 27.1735 53.433 27.215 53.4353H27.455C27.549 53.4353 27.625 53.4628 27.6815 53.5193C27.7101 53.5494 27.7323 53.585 27.7467 53.6239C27.7612 53.6628 27.7676 53.7043 27.7655 53.7458V54.4058C28.002 54.0878 28.3105 53.8223 28.6915 53.6108C29.074 53.4003 29.5565 53.2948 30.1405 53.2948C30.6975 53.2948 31.164 53.3903 31.541 53.5838C31.9032 53.7628 32.2178 54.0252 32.459 54.3493C32.6955 54.6693 32.869 55.0253 32.9825 55.4193C33.0955 55.8143 33.156 56.2168 33.166 56.6308C33.176 56.7713 33.1795 56.9258 33.1795 57.0958C33.1795 57.2633 33.176 57.4178 33.166 57.5583C33.1571 57.9681 33.0954 58.3752 32.9825 58.7693C32.869 59.1643 32.6955 59.5193 32.459 59.8393C32.2178 60.1636 31.9032 60.4261 31.541 60.6053C31.164 60.7988 30.6975 60.8943 30.141 60.8943C29.5565 60.8943 29.074 60.7868 28.691 60.5703C28.311 60.3553 28.002 60.0918 27.766 59.7828V63.1188C27.768 63.1601 27.7616 63.2013 27.7471 63.24C27.7325 63.2787 27.7102 63.314 27.6815 63.3438C27.6513 63.3723 27.6157 63.3944 27.5768 63.4088C27.5379 63.4231 27.4964 63.4294 27.455 63.4273H27.215ZM30.0565 60.0778C30.6115 60.0778 31.051 59.9568 31.3715 59.7128C31.6915 59.4688 31.9325 59.1359 32.0645 58.7558C32.205 58.3608 32.285 57.9393 32.3045 57.4883C32.3123 57.2258 32.3123 56.9632 32.3045 56.7008C32.2886 56.2686 32.2077 55.8413 32.0645 55.4333C31.9318 55.0533 31.6907 54.7206 31.371 54.4763C31.051 54.2323 30.611 54.1113 30.0565 54.1113C29.5195 54.1113 29.086 54.2383 28.756 54.4898C28.4321 54.7358 28.1804 55.0644 28.0275 55.4413C27.8752 55.8056 27.7865 56.1934 27.7655 56.5878C27.7555 56.7283 27.752 56.9118 27.752 57.1363C27.752 57.3613 27.756 57.5448 27.7655 57.6853C27.7755 58.0603 27.8615 58.4313 28.0275 58.7968C28.1914 59.1635 28.4503 59.4797 28.7775 59.7128C29.1115 59.9568 29.5375 60.0778 30.0565 60.0778V60.0778ZM21.291 60.8948C20.8575 60.8992 20.4289 60.8028 20.039 60.6133C19.6749 60.439 19.3577 60.1806 19.1135 59.8593C18.8803 59.5545 18.7558 59.1805 18.76 58.7968C18.76 58.1598 19.02 57.6483 19.537 57.2633C20.0545 56.8783 20.7285 56.6308 21.5585 56.5173L23.793 56.2088V55.7148C23.793 55.2183 23.6385 54.8258 23.334 54.5408C23.0275 54.2538 22.539 54.1108 21.869 54.1108C21.379 54.1108 20.984 54.2068 20.6815 54.4003C20.381 54.5918 20.174 54.8433 20.0605 55.1523C20.0135 55.2923 19.924 55.3633 19.791 55.3633H19.566C19.453 55.3633 19.373 55.3338 19.324 55.2713C19.2766 55.209 19.2519 55.1325 19.254 55.0543C19.254 54.9218 19.3045 54.7578 19.4025 54.5623C19.502 54.3648 19.6545 54.1698 19.8635 53.9763C20.0705 53.7848 20.338 53.6228 20.668 53.4918C20.998 53.3613 21.398 53.2948 21.869 53.2948C22.426 53.2948 22.885 53.3688 23.248 53.5198C23.6115 53.6698 23.8945 53.8648 24.098 54.1033C24.299 54.3433 24.443 54.6093 24.5275 54.8983C24.6135 55.1893 24.6545 55.4763 24.6545 55.7578V60.4453C24.6565 60.4864 24.6502 60.5276 24.6357 60.5662C24.6213 60.6048 24.5991 60.6401 24.5705 60.6698C24.5404 60.6984 24.5048 60.7206 24.4659 60.735C24.4269 60.7495 24.3855 60.7558 24.344 60.7538H24.1035C24.062 60.7558 24.0205 60.7495 23.9816 60.735C23.9427 60.7206 23.9071 60.6984 23.877 60.6698C23.8483 60.64 23.8261 60.6047 23.8117 60.566C23.7972 60.5273 23.7908 60.486 23.793 60.4448V59.7828C23.6585 59.9741 23.4966 60.1445 23.3125 60.2888C23.1055 60.4588 22.8375 60.6013 22.5135 60.7188C22.1875 60.8358 21.781 60.8943 21.291 60.8943V60.8948ZM21.4315 60.0778C21.865 60.0778 22.2615 59.9843 22.619 59.7968C22.9765 59.6093 23.2615 59.3203 23.4745 58.9318C23.6875 58.5428 23.793 58.0523 23.793 57.4608V56.9823L21.969 57.2363C21.1955 57.3378 20.6115 57.5173 20.215 57.7693C19.82 58.0233 19.621 58.3418 19.621 58.7263C19.621 59.0368 19.711 59.2908 19.891 59.4883C20.0705 59.6833 20.299 59.8318 20.576 59.9293C20.8535 60.0293 21.1385 60.0778 21.4315 60.0778V60.0778ZM14.8145 60.7538C14.773 60.7558 14.7315 60.7495 14.6926 60.735C14.6537 60.7206 14.6181 60.6984 14.588 60.6698C14.5597 60.6397 14.5377 60.6044 14.5233 60.5657C14.5089 60.5271 14.5023 60.486 14.504 60.4448V53.7598C14.504 53.6658 14.533 53.5878 14.588 53.5273C14.617 53.4967 14.6523 53.4727 14.6913 53.4569C14.7304 53.441 14.7724 53.4337 14.8145 53.4353H15.041C15.135 53.4353 15.213 53.4668 15.2755 53.5273C15.3057 53.5578 15.3294 53.5941 15.3451 53.6341C15.3609 53.6741 15.3683 53.7168 15.367 53.7598V54.4063C15.5249 54.0885 15.7833 53.8317 16.102 53.6758C16.422 53.5158 16.8185 53.4358 17.289 53.4358H17.8125C17.9065 53.4358 17.9825 53.4628 18.039 53.5193C18.0676 53.5494 18.0898 53.585 18.1042 53.6239C18.1187 53.6628 18.1251 53.7043 18.123 53.7458V53.9408C18.123 54.0368 18.0955 54.1108 18.039 54.1678C18.0089 54.1964 17.9733 54.2186 17.9344 54.233C17.8954 54.2475 17.854 54.2538 17.8125 54.2518H17.205C16.6385 54.2518 16.1915 54.4158 15.8615 54.7438C15.5315 55.0723 15.367 55.5193 15.367 56.0818V60.4453C15.3686 60.4871 15.3613 60.5287 15.3455 60.5674C15.3298 60.6062 15.3059 60.641 15.2755 60.6698C15.211 60.7269 15.127 60.757 15.041 60.7538H14.8145ZM8.69348 60.8948C7.88298 60.8948 7.20098 60.7383 6.65048 60.4238C6.10957 60.1198 5.67158 59.6614 5.39248 59.1073C5.10348 58.5448 4.94748 57.8963 4.91748 57.1658C4.90798 56.7418 4.90448 56.2968 4.90448 55.8278C4.90448 55.3593 4.90798 54.9138 4.91798 54.4898C4.94748 53.7498 5.10348 53.0998 5.39298 52.5408C5.67516 51.9885 6.11559 51.5329 6.65798 51.2323C7.21298 50.9173 7.89298 50.7613 8.69298 50.7613C9.34398 50.7613 9.90048 50.8573 10.3615 51.0508C10.824 51.2418 11.2015 51.4823 11.492 51.7673C11.785 52.0543 12.002 52.3418 12.1425 52.6323C12.285 52.9238 12.3595 53.1673 12.369 53.3648C12.3754 53.4018 12.3724 53.4399 12.3602 53.4755C12.3479 53.5111 12.3269 53.543 12.299 53.5683C12.2364 53.6226 12.1552 53.6506 12.0725 53.6463H11.7615C11.676 53.6463 11.615 53.6248 11.578 53.5838C11.539 53.5408 11.502 53.4688 11.465 53.3648C11.3612 53.058 11.2 52.7738 10.99 52.5273C10.77 52.2598 10.4725 52.0388 10.1 51.8673C9.72848 51.6933 9.25798 51.6053 8.69348 51.6053C7.85348 51.6053 7.17348 51.8338 6.65048 52.2888C6.12698 52.7438 5.84748 53.5018 5.80848 54.5623C5.78114 55.4064 5.78114 56.2512 5.80848 57.0953C5.84748 58.1463 6.12698 58.9003 6.65048 59.3613C7.17398 59.8203 7.85348 60.0508 8.69348 60.0508C9.24998 60.0508 9.74848 59.9453 10.1915 59.7343C10.6326 59.5258 10.9983 59.1859 11.2385 58.7613C11.492 58.3263 11.619 57.7693 11.619 57.0953V56.3768H9.15998C9.11786 56.3784 9.07588 56.371 9.03683 56.3552C8.99777 56.3393 8.96254 56.3153 8.93348 56.2848C8.87614 56.2213 8.84598 56.1378 8.84948 56.0523V55.8553C8.84948 55.7538 8.87698 55.6738 8.93348 55.6168C8.96357 55.5882 8.99917 55.566 9.03811 55.5515C9.07704 55.5371 9.1185 55.5307 9.15998 55.5328H12.1855C12.289 55.5328 12.369 55.5603 12.4255 55.6168C12.4825 55.6738 12.51 55.7538 12.51 55.8553V57.0953C12.51 57.8453 12.3615 58.5078 12.0645 59.0803C11.7742 59.6456 11.321 60.1108 10.7635 60.4158C10.1935 60.7343 9.50348 60.8943 8.69348 60.8943V60.8948Z" fill="#E434AA"/>
</svg>
