<svg width="64" height="64" viewBox="0 0 64 64" fill="none" xmlns="http://www.w3.org/2000/svg">
<path d="M31.6955 6.12393C29.5845 6.13393 27.5695 6.31343 25.7955 6.62743C20.5705 7.55043 19.6225 9.48243 19.6225 13.0459V17.7514H31.969V19.3199H14.9885C11.4005 19.3199 8.25848 21.4764 7.27548 25.5804C6.14148 30.2829 6.09148 33.2179 7.27548 38.1284C8.15298 41.7839 10.249 44.3879 13.8375 44.3879H18.083V38.7469C18.083 34.6714 21.6085 31.0769 25.796 31.0769H38.1285C41.5615 31.0769 44.3015 28.2499 44.3015 24.8029V13.0464C44.3015 9.69993 41.4785 7.18643 38.1285 6.62793C36.0065 6.27493 33.806 6.11443 31.6955 6.12393V6.12393ZM25.0185 9.90843C26.2935 9.90843 27.3355 10.9669 27.3355 12.2689C27.3355 13.5654 26.294 14.6139 25.0185 14.6139C23.7385 14.6139 22.702 13.5654 22.702 12.2689C22.7015 10.9669 23.7385 9.90843 25.0185 9.90843V9.90843Z" fill="url(#paint0_linear_1167_2237)"/>
<path d="M45.841 19.3198V24.8028C45.841 29.0528 42.237 32.6303 38.128 32.6303H25.7955C22.4175 32.6303 19.6225 35.5218 19.6225 38.9048V50.6623C19.6225 54.0078 22.5315 55.9763 25.7955 56.9358C29.7035 58.0843 33.4515 58.2923 38.128 56.9358C41.236 56.0353 44.301 54.2243 44.301 50.6623V45.9563H31.969V44.3873H50.475C54.063 44.3873 55.401 41.8848 56.649 38.1278C57.938 34.2603 57.8825 30.5408 56.649 25.5798C55.762 22.0073 54.0685 19.3193 50.475 19.3193H45.841V19.3198ZM38.9045 49.0933C40.185 49.0933 41.2215 50.1418 41.2215 51.4393C41.2215 52.7403 40.1845 53.7988 38.9045 53.7988C37.6295 53.7988 36.588 52.7403 36.588 51.4393C36.588 50.1418 37.6295 49.0933 38.9045 49.0933V49.0933Z" fill="url(#paint1_linear_1167_2237)"/>
<path opacity="0.444" d="M48.6545 59.7983C48.6545 61.5698 41.2465 63.0063 32.109 63.0063C22.971 63.0063 15.563 61.5698 15.563 59.7983C15.563 58.0263 22.9705 56.5898 32.109 56.5898C41.2465 56.5898 48.6545 58.0258 48.6545 59.7983Z" fill="url(#paint2_radial_1167_2237)"/>
<defs>
<linearGradient id="paint0_linear_1167_2237" x1="5.16842" y1="7.59525" x2="33.6453" y2="31.8802" gradientUnits="userSpaceOnUse">
<stop stop-color="#5A9FD4"/>
<stop offset="1" stop-color="#306998"/>
</linearGradient>
<linearGradient id="paint1_linear_1167_2237" x1="44.3594" y1="46.976" x2="34.1472" y2="32.655" gradientUnits="userSpaceOnUse">
<stop stop-color="#FFD43B"/>
<stop offset="1" stop-color="#FFE873"/>
</linearGradient>
<radialGradient id="paint2_radial_1167_2237" cx="0" cy="0" r="1" gradientUnits="userSpaceOnUse" gradientTransform="translate(32.0421 59.7065) rotate(-90) scale(3.20916 14.1069)">
<stop stop-color="#B8B8B8" stop-opacity="0.498"/>
<stop offset="1" stop-color="#7F7F7F" stop-opacity="0"/>
</radialGradient>
</defs>
</svg>
