<svg width="64" height="64" viewBox="0 0 64 64" fill="none" xmlns="http://www.w3.org/2000/svg">
<g clip-path="url(#clip0_3602_2962)">
<path d="M54.505 14.3201L35.64 3.12012C34.515 2.45512 33.255 2.12012 32 2.12012C30.745 2.12012 29.485 2.45512 28.36 3.12512L9.48998 14.3251C7.23998 15.6601 5.84998 18.1301 5.84998 20.8051V43.2051C5.84998 45.8801 7.23498 48.3501 9.48998 49.6851L28.355 60.8851C29.48 61.5551 30.735 61.8851 31.995 61.8851C33.25 61.8851 34.51 61.5501 35.635 60.8851L54.505 49.6851C56.755 48.3501 58.145 45.8751 58.145 43.2051V20.8001C58.145 18.1301 56.76 15.6551 54.505 14.3201ZM39.895 49.2951L39.925 50.9051C39.925 51.1001 39.8 51.3201 39.65 51.4001L38.695 51.9501C38.545 52.0251 38.415 51.9351 38.415 51.7401L38.4 50.1551C37.585 50.4951 36.755 50.5751 36.23 50.3651C36.13 50.3251 36.085 50.1801 36.125 50.0101L36.47 48.5551C36.5 48.4401 36.56 48.3251 36.64 48.2551C36.67 48.2251 36.7 48.2051 36.73 48.1901C36.785 48.1601 36.84 48.1551 36.885 48.1751C37.455 48.3651 38.18 48.2751 38.88 47.9251C39.77 47.4751 40.365 46.5651 40.355 45.6651C40.345 44.8451 39.905 44.5101 38.83 44.5001C37.46 44.5051 36.18 44.2351 36.16 42.2151C36.145 40.5551 37.005 38.8251 38.375 37.7351L38.36 36.1101C38.36 35.9101 38.48 35.6901 38.635 35.6101L39.56 35.0201C39.71 34.9451 39.84 35.0401 39.84 35.2351L39.855 36.8601C40.535 36.5901 41.125 36.5151 41.66 36.6401C41.775 36.6701 41.83 36.8301 41.78 37.0151L41.42 38.4551C41.39 38.5651 41.33 38.6751 41.255 38.7451C41.2271 38.7732 41.1951 38.7968 41.16 38.8151C41.11 38.8401 41.065 38.8451 41.02 38.8401C40.775 38.7851 40.195 38.6601 39.28 39.1201C38.32 39.6051 37.985 40.4401 37.99 41.0601C38 41.8001 38.375 42.0251 39.685 42.0451C41.43 42.0751 42.18 42.8351 42.2 44.5901C42.225 46.3101 41.305 48.1651 39.895 49.2951ZM49.785 46.5901C49.785 46.7401 49.765 46.8801 49.64 46.9501L44.87 49.8501C44.745 49.9251 44.645 49.8601 44.645 49.7101V48.4801C44.645 48.3301 44.735 48.2501 44.86 48.1751L49.56 45.3651C49.685 45.2901 49.785 45.3551 49.785 45.5051V46.5901ZM53.065 19.0451L35.215 30.0701C32.99 31.3701 31.35 32.8301 31.345 35.5151V57.5101C31.345 59.1151 31.995 60.1551 32.99 60.4601C32.665 60.5151 32.33 60.5551 32 60.5551C30.955 60.5551 29.925 60.2701 29.02 59.7351L10.155 48.5351C8.30998 47.4401 7.16498 45.3951 7.16498 43.2001V20.8001C7.16498 18.6051 8.30998 16.5601 10.155 15.4651L29.025 4.26512C29.93 3.73012 30.96 3.44512 32.005 3.44512C33.05 3.44512 34.08 3.73012 34.985 4.26512L53.855 15.4651C55.41 16.3901 56.46 17.9851 56.755 19.7801C56.12 18.4451 54.71 18.0851 53.065 19.0451Z" fill="white"/>
</g>
<defs>
<clipPath id="clip0_3602_2962">
<rect width="64" height="64" fill="white"/>
</clipPath>
</defs>
</svg>
