<svg width="64" height="64" viewBox="0 0 64 64" fill="none" xmlns="http://www.w3.org/2000/svg">
<path d="M38.002 25.2942C34.1745 25.2942 32.2725 27.2922 32.2725 30.1692C32.2725 32.0212 33.1985 33.3332 34.4245 33.9337C33.824 34.4842 33.324 34.9657 32.8735 35.4407C32.4225 35.9167 32.1475 36.4192 32.1475 36.9702C32.1475 37.6462 32.4225 38.2727 33.2485 38.6217C32.373 39.4487 31.872 40.0487 31.872 41.1752C31.872 43.1517 33.5985 44.3032 38.1275 44.3032C42.4815 44.3032 45.008 42.6777 45.008 39.7997C45.008 36.4732 42.4565 36.3477 38.1275 36.0717L35.6755 35.9217L36.5015 34.5957C36.951 34.7207 37.6775 34.8207 38.479 34.8207C41.631 34.8207 43.808 33.1947 43.808 30.4167C43.808 29.2657 43.2395 28.4652 42.7895 27.8892L45 27.7142V25.5002H40.3045C39.7295 25.5002 39.078 25.2942 38.002 25.2942V25.2942ZM39.128 39.5497C40.33 39.6247 41.281 39.6747 41.281 40.4767C41.281 41.8262 39.3035 41.9277 37.853 41.9277C36.101 41.9277 34.825 41.6267 34.825 40.6262C34.825 40.1252 35.15 39.7002 35.476 39.3002L39.128 39.5497V39.5497ZM38.1535 32.1937C36.5015 32.1937 35.826 31.3422 35.826 30.1167C35.826 28.4902 36.8515 27.8142 38.228 27.8142C39.654 27.8142 40.505 28.5902 40.505 30.0662C40.505 31.3682 39.554 32.1937 38.1535 32.1937ZM49.5865 23.3427C51.0375 23.3427 51.8635 22.5167 51.8635 21.0897C51.8635 19.6647 51.0375 18.8882 49.5865 18.8882C48.16 18.8882 47.334 19.6647 47.334 21.0897C47.334 22.5162 48.16 23.3427 49.5865 23.3427ZM51.5 35.7277V25.5002H46.6335L46.3585 27.4482L47.692 27.8852C47.943 27.9597 48 28.0967 48 28.3717V35.7277C48 36.1037 47.789 36.1787 47.4385 36.2292L46 36.4042V38.5002H53.5V36.4042L52.062 36.2292C51.6855 36.1787 51.5 36.1292 51.5 35.7277ZM62.709 35.2077C62.108 35.4327 61.393 35.6072 60.6915 35.6072C59.341 35.6072 59 35.0322 59 33.5557V27.5002H62.5V25.0002H59.181C58.9805 25.0002 59 24.9987 59 24.8237V21.5002H56.6035C56.3285 24.0002 55 25.0982 53 25.3492V27.5002H55.0015C55.202 27.5002 55 27.6767 55 27.8262V34.3817C55 37.2102 56.227 38.4107 59.204 38.4107C60.631 38.4107 62.2575 37.9352 63.334 37.4102L62.709 35.2077V35.2077ZM14.869 19.4032C14.7123 19.2465 14.5263 19.1222 14.3215 19.0374C14.1168 18.9526 13.8974 18.9089 13.6758 18.9089C13.4541 18.9089 13.2347 18.9526 13.03 19.0374C12.8252 19.1222 12.6392 19.2465 12.4825 19.4032L10.107 21.7787L13.1205 24.7922C13.4759 24.6712 13.8581 24.6525 14.2236 24.7381C14.5891 24.8238 14.9231 25.0105 15.1877 25.2768C15.4523 25.5431 15.6367 25.8784 15.7199 26.2445C15.8032 26.6106 15.7819 26.9926 15.6585 27.3472L18.563 30.2517C18.9922 30.1024 19.4595 30.1033 19.8881 30.2542C20.3168 30.4052 20.6815 30.6972 20.9225 31.0825C21.1635 31.4677 21.2666 31.9234 21.2148 32.3749C21.1631 32.8264 20.9595 33.247 20.6375 33.5677C20.4511 33.7543 20.2298 33.9023 19.9861 34.0034C19.7424 34.1044 19.4813 34.1564 19.2175 34.1564C18.9537 34.1564 18.6926 34.1044 18.4489 34.0034C18.2053 33.9023 17.9839 33.7543 17.7975 33.5677C17.2075 32.9772 16.9855 32.1107 17.285 31.3837L14.5 28.6752V35.8037C14.5 35.8982 14.9475 36.0242 15.107 36.1832C15.891 36.9672 15.929 38.2382 15.1445 39.0237C14.9599 39.21 14.7402 39.3578 14.4981 39.4587C14.256 39.5596 13.9963 39.6116 13.734 39.6116C13.4717 39.6116 13.212 39.5596 12.9699 39.4587C12.7279 39.3578 12.5081 39.21 12.3235 39.0237C11.5395 38.2382 11.549 36.9677 12.3335 36.1832C12.5275 35.9897 12.5 35.8432 13 35.7452V28.5507C12.5 28.4527 12.5365 28.3072 12.343 28.1127C12.0613 27.831 11.8698 27.4719 11.7927 27.081C11.7157 26.6901 11.7567 26.2852 11.9105 25.9177L8.9395 22.9462L1.095 30.7907C0.938167 30.9474 0.813749 31.1334 0.728861 31.3382C0.643974 31.543 0.600281 31.7625 0.600281 31.9842C0.600281 32.2059 0.643974 32.4254 0.728861 32.6302C0.813749 32.835 0.938167 33.021 1.095 33.1777L12.536 44.6182C12.8526 44.9344 13.2818 45.112 13.7293 45.112C14.1767 45.112 14.6059 44.9344 14.9225 44.6182L26.31 33.2302C26.6263 32.9135 26.8039 32.4842 26.8039 32.0367C26.8039 31.5891 26.6263 31.1599 26.31 30.8432L14.869 19.4032V19.4032Z" fill="white"/>
</svg>
