<svg width="64" height="64" viewBox="0 0 64 64" fill="none" xmlns="http://www.w3.org/2000/svg">
<path fill-rule="evenodd" clip-rule="evenodd" d="M63.296 0.704102H0.70401V63.2966H63.296V0.704102ZM50.3375 40.8774C55.853 43.1139 57.715 45.5124 58.1735 48.3679C58.614 50.8254 58.066 52.4194 57.9835 52.6584C55.9485 59.6194 44.6025 59.8454 40.0685 55.2464C39.9316 55.0918 39.802 54.9476 39.6788 54.8106C38.9395 53.9884 38.4283 53.4199 37.9385 52.3489C39.1593 51.6469 39.7617 51.3004 40.3636 50.9532C40.95 50.6149 41.5359 50.2758 42.6925 49.6064C43.966 51.5639 45.144 52.6404 47.262 53.0809C50.136 53.4319 53.0275 52.4439 52.379 49.3919C51.9926 47.9467 50.0767 47.1355 47.8424 46.1895C46.2225 45.5036 44.4354 44.7469 42.9425 43.6264C39.337 41.2049 38.492 35.3209 41.455 31.9589C42.4425 30.7154 44.1265 29.7879 45.8935 29.3414L47.7375 29.1029C51.2775 29.0314 53.491 29.9659 55.1155 31.7804C55.5675 32.2384 55.936 32.7324 56.6265 33.8029C56.2354 34.0522 55.9257 34.2493 55.6562 34.4207C54.6264 35.0759 54.1859 35.3561 52.045 36.7424C51.4675 35.4989 50.51 34.7194 49.4985 34.3804C47.928 33.9044 45.9465 34.4219 45.536 36.0819C45.393 36.5934 45.423 37.0694 45.649 37.9144C46.1642 39.0897 47.6618 39.7268 49.23 40.3939C49.5992 40.5509 49.9724 40.7096 50.3375 40.8774ZM28.8765 29.4714H34.731C34.731 31.2575 34.7342 33.0415 34.7375 34.8243C34.744 38.4162 34.7505 42.0028 34.7305 45.5899C34.7323 46.0759 34.74 46.5549 34.7476 47.0264C34.7917 49.7473 34.8316 52.2174 33.6955 54.3119C32.7735 56.1864 31.0125 57.4179 28.9715 58.0124C25.8355 58.7324 22.837 58.3219 20.606 56.9829C19.1125 56.0669 17.9465 54.6569 17.155 53.0324L21.915 50.1174C21.9528 50.1332 22.0578 50.3178 22.1998 50.5675C22.2156 50.5952 22.2319 50.6237 22.2485 50.6529C22.855 51.6699 23.3785 52.3894 24.408 52.8954C25.4195 53.2404 27.639 53.4609 28.4955 51.6819C28.9132 50.9603 28.8916 48.9361 28.8658 46.5124C28.8593 45.8982 28.8525 45.2583 28.8525 44.6074L28.8765 29.4714Z" fill="white"/>
</svg>
