<svg width="64" height="64" viewBox="0 0 64 64" fill="none" xmlns="http://www.w3.org/2000/svg">
<path fill-rule="evenodd" clip-rule="evenodd" d="M56.9115 52.2976C56.014 51.5586 55.097 50.8371 54.2575 50.0351C53.3225 49.1426 52.735 48.0631 52.863 46.6961C52.9365 45.9096 52.755 45.2331 51.8065 44.9701C52.0295 44.3931 52.2385 44.0061 52.323 43.5936C52.417 43.1336 52.412 42.6501 52.425 42.1766C52.557 37.1966 50.758 32.8311 48.0935 28.7591C46.8665 26.8851 45.585 25.0446 44.277 23.2261C42.231 20.3821 41.4975 17.1871 41.4605 13.7356C41.4395 12.1423 41.2584 10.5552 40.92 8.99809C40.2635 5.97809 38.6455 3.61659 35.711 2.35009C33.4625 1.37909 31.135 1.18659 28.7605 1.80809C25.31 2.71059 23.2235 5.27509 23.2625 8.85209C23.2995 12.2946 23.471 15.7416 23.7235 19.1761C23.8675 21.1226 23.5675 22.8021 22.276 24.3461C21.034 25.8306 19.923 27.4321 18.847 29.0446C18.2325 29.9666 17.6885 30.9711 17.3085 32.0101C16.2735 34.8416 15.322 37.6966 13.6705 40.2601C13.0585 41.2101 12.989 42.2731 13.4235 43.3596C13.536 43.6411 13.605 44.0741 13.468 44.3006C12.291 46.2541 10.9625 47.9731 8.43503 48.3481C6.44703 48.6436 6.34903 49.0051 6.40953 51.0546C6.45953 52.7231 6.44003 54.4071 6.26953 56.0651C6.08803 57.8426 6.27353 58.3256 7.99053 58.7516C11.9525 59.7356 15.947 60.5751 19.7365 62.1786C21.35 62.8611 22.969 62.6241 24.2685 61.2971C25.625 59.9116 27.339 59.3696 29.1905 59.3676C32.333 59.3651 35.4765 59.5166 38.6205 59.5521C39.4715 59.5621 39.96 59.8786 40.3025 60.6516C40.7225 61.5981 41.4325 62.2936 42.525 62.4146C44.6215 62.6456 46.5315 62.3346 48.12 60.7351C50.079 58.7611 52.338 57.2021 54.9275 56.1216C55.6685 55.8121 56.3665 55.3256 56.979 54.7976C58.0945 53.8366 58.0355 53.2246 56.9115 52.2976ZM31.213 12.0601C31.592 10.7596 32.4815 9.91559 33.8345 9.65959C34.9725 9.44459 35.936 10.0036 36.654 11.2826C37.427 12.6616 37.681 14.1026 37.021 15.6116C36.4795 16.8486 36.2255 16.9651 34.9595 16.5456C34.7225 16.4671 34.491 16.3741 34.071 16.2196C34.425 15.9226 34.648 15.7021 34.903 15.5286C35.47 15.1426 35.629 14.5996 35.576 13.9546C35.5065 13.1076 34.8405 12.3576 34.1575 12.3671C33.545 12.3756 33.0265 12.9506 32.9575 13.8246C32.9145 14.3691 33.005 14.9241 33.044 15.6191C31.321 15.1076 30.6885 13.8566 31.213 12.0601ZM24.838 10.9346C25.475 9.97059 26.4365 9.77759 27.3885 10.4226C28.403 11.1106 29.162 13.0506 28.77 14.2106C28.6275 14.6326 28.2065 14.9606 27.912 15.3311L27.61 15.1441C27.495 14.5176 27.472 13.8516 27.2315 13.2776C27.0795 12.9136 26.603 12.6856 26.272 12.3966C25.961 12.7661 25.4255 13.1181 25.3935 13.5106C25.3495 14.0526 25.632 14.6506 25.878 15.1761C26.0335 15.5066 26.3785 15.7486 26.7345 16.1341L25.7735 16.8891C24.2645 15.5391 23.816 12.4791 24.838 10.9346ZM43.67 43.0376C43.5685 44.3396 43.42 44.3941 42.111 44.5866C41.1815 44.7226 40.9315 44.9646 40.8845 46.0686C40.8333 47.3602 40.8313 48.6533 40.8785 49.9451C40.909 50.8301 40.61 51.5241 40.001 52.1416C36.619 55.5696 32.5785 57.1941 27.745 56.6046C25.66 56.3501 24.297 55.0811 23.1965 53.2851C23.6865 53.1036 24.049 52.9816 24.4025 52.8381C25.9635 52.2031 26.2555 50.8606 25.009 49.6996C24.067 48.8211 23.016 48.0581 22.0055 47.2536C21.0285 46.4761 20.0385 45.7146 19.06 44.9391C18.226 44.2776 17.9075 43.4251 17.8875 42.3451C17.8405 39.7541 18.3735 37.3301 19.4565 34.9716C20.4225 32.8671 21.171 30.6631 22.076 28.5291C22.5435 27.4281 23.029 26.3016 23.715 25.3351C24.3745 24.4081 24.782 23.5006 24.709 22.3651C24.667 21.7271 24.701 21.0841 24.701 20.4436L25.0545 20.2676C25.625 20.7601 26.2055 21.2421 26.766 21.7471C28.7885 23.5701 30.712 23.6536 32.9255 22.0821C33.8695 21.4116 34.8905 20.8471 35.889 20.2561C36.1375 20.1091 36.435 20.0446 36.856 19.8871C37.9315 22.4201 38.987 24.9036 40.0435 27.3871C40.5795 28.6491 41.0095 29.9706 41.6755 31.1606C43.011 33.5481 43.7215 36.0671 43.7105 38.7966C43.7045 40.2116 43.779 41.6316 43.67 43.0376Z" fill="white"/>
</svg>
